# xmcd
#
# Track frame offsets:
#	150
#	14882
#	33463
#	49055
#	67101
#	84644
#	98519
#	111164
#	127930
#	140830
#
# Disc length: 2020 seconds
#
# Revision: 0
# Processed by: cddbd v1.5.2PL0 Copyright (c) Steve Scherf et al.
# Submitted via: audiograbber 1.83.01
#
DISCID=8d07e20a
DTITLE=Dave Caley - Its A Long Way Back Dave Caley
DYEAR=2006
DGENRE=Country
TTITLE0=You Won´t Be Lonely Long
TTITLE1=First Night Without You
TTITLE2=If That Was Me
TTITLE3=It´s A Long Way Back
TTITLE4=Free For All Friday Night
TTITLE5=Just A Handshake
TTITLE6=Sorry Don´t Work Anymore
TTITLE7=Middle America
TTITLE8=Thing Could Be Worse
TTITLE9=Thank God For Jesus
EXTD=
EXTT0=
EXTT1=
EXTT2=
EXTT3=
EXTT4=
EXTT5=
EXTT6=
EXTT7=
EXTT8=
EXTT9=
PLAYORDER=
